<?xml version="1.0" encoding="UTF-8"?>
<!DOCTYPE svg PUBLIC "-//W3C//DTD SVG 1.1//EN" "http://www.w3.org/Graphics/SVG/1.1/DTD/svg11.dtd">
<!-- Creator: CorelDRAW X7 -->
<svg xmlns="http://www.w3.org/2000/svg" xml:space="preserve" width="131.45mm" height="35.7794mm" version="1.1" style="shape-rendering:geometricPrecision; text-rendering:geometricPrecision; image-rendering:optimizeQuality; fill-rule:evenodd; clip-rule:evenodd"
viewBox="0 0 13174 3586"
 xmlns:xlink="http://www.w3.org/1999/xlink">
 <defs>
  <style type="text/css">
   <![CDATA[
    .fil1 {fill:#828574}
    .fil0 {fill:#828574;fill-rule:nonzero}
   ]]>
  </style>
 </defs>
 <g id="Capa_x0020_1">
  <metadata id="CorelCorpID_0Corel-Layer"/>
  <g id="_2334770687840">
   <path class="fil0" d="M6625 0c212,0 404,131 541,344 135,208 219,495 219,811 0,316 -84,603 -219,811 -137,213 -329,344 -541,344 -213,0 -405,-131 -542,-344 -135,-208 -219,-495 -219,-811 0,-316 84,-603 219,-811 137,-213 329,-344 542,-344zm485 380c-125,-193 -297,-313 -485,-313 -189,0 -361,120 -486,313 -128,198 -207,472 -207,775 0,303 79,577 207,775 125,193 297,313 486,313 188,0 360,-120 485,-313 128,-198 207,-472 207,-775 0,-303 -79,-577 -207,-775z"/>
   <path class="fil1" d="M1726 3441l0 13 -253 0 0 -13 15 0c15,0 26,-3 35,-8 6,-3 11,-9 14,-17 2,-6 4,-21 4,-45l0 -318c0,-25 -2,-40 -4,-46 -3,-6 -8,-12 -16,-17 -8,-4 -19,-7 -33,-7l-15 0 0 -13 253 0 0 13 -16 0c-15,0 -26,3 -34,8 -7,3 -12,9 -15,17 -3,6 -4,21 -4,45l0 318c0,25 1,40 4,47 3,6 8,11 16,16 8,4 19,7 33,7l16 0zm520 -482l0 171 -13 0c-16,-47 -40,-83 -71,-107 -32,-24 -67,-36 -105,-36 -36,0 -66,10 -90,30 -24,21 -41,49 -51,86 -10,36 -15,73 -15,112 0,46 5,87 16,122 11,34 29,60 53,77 25,16 53,24 87,24 11,0 23,-1 36,-3 12,-3 24,-7 37,-11l0 -101c0,-19 -1,-31 -4,-37 -2,-6 -8,-11 -16,-15 -8,-4 -18,-7 -30,-7l-12 0 0 -13 235 0 0 13c-18,1 -30,4 -37,8 -7,3 -12,9 -16,18 -3,4 -4,16 -4,33l0 101c-31,13 -63,24 -96,31 -33,7 -68,10 -104,10 -46,0 -84,-6 -114,-18 -31,-13 -58,-29 -81,-50 -23,-20 -41,-43 -54,-68 -17,-33 -25,-70 -25,-110 0,-73 26,-135 77,-185 51,-50 115,-75 192,-75 25,0 46,2 66,6 10,2 27,7 50,16 24,9 38,13 42,13 7,0 13,-2 19,-7 5,-5 11,-14 15,-28l13 0zm82 11l249 0 0 13 -12 0c-19,0 -32,2 -39,6 -7,4 -12,10 -15,17 -3,6 -4,24 -4,51l0 237c0,43 3,72 9,86 7,14 18,26 33,35 14,9 33,14 56,14 26,0 49,-6 67,-18 19,-11 32,-28 42,-48 9,-21 13,-57 13,-108l0 -198c0,-21 -2,-37 -7,-46 -4,-9 -10,-16 -17,-19 -10,-6 -25,-9 -45,-9l0 -13 167 0 0 13 -10 0c-13,0 -25,3 -33,9 -10,5 -16,13 -20,24 -3,8 -5,22 -5,41l0 184c0,57 -3,98 -11,123 -7,25 -26,48 -55,69 -29,22 -68,32 -118,32 -42,0 -75,-5 -97,-16 -32,-16 -54,-35 -67,-59 -12,-24 -19,-56 -19,-96l0 -237c0,-27 -1,-45 -4,-51 -4,-7 -9,-13 -17,-17 -7,-4 -21,-6 -41,-6l0 -13zm709 28l0 197 10 0c30,0 53,-10 66,-29 14,-19 23,-48 27,-85l13 0 0 253 -13 0c-3,-28 -9,-50 -19,-68 -9,-17 -19,-29 -31,-35 -13,-6 -30,-9 -53,-9l0 136c0,27 1,43 3,49 2,6 7,11 13,15 6,3 16,5 30,5l29 0c45,0 81,-10 109,-31 27,-21 46,-53 58,-96l14 0 -23 154 -417 0 0 -13 16 0c14,0 25,-3 34,-8 6,-3 11,-9 14,-17 2,-6 4,-21 4,-45l0 -318c0,-22 -1,-35 -2,-40 -2,-9 -7,-15 -13,-19 -9,-7 -22,-11 -37,-11l-16 0 0 -13 404 0 0 143 -13 0c-7,-35 -17,-60 -29,-75 -13,-15 -30,-26 -53,-33 -13,-5 -38,-7 -75,-7l-50 0zm750 286l-19 170 -429 0 0 -13 16 0c14,0 25,-3 34,-8 6,-3 11,-9 14,-17 2,-6 4,-21 4,-45l0 -318c0,-25 -1,-40 -4,-46 -2,-6 -8,-12 -16,-17 -8,-4 -18,-7 -32,-7l-16 0 0 -13 258 0 0 13 -21 0c-14,0 -26,3 -34,8 -6,3 -11,9 -15,17 -2,6 -4,21 -4,45l0 308c0,25 2,40 5,47 2,7 8,12 16,16 6,2 21,3 44,3l40 0c26,0 47,-5 64,-14 17,-9 32,-23 44,-42 13,-20 25,-49 36,-87l15 0zm36 170l0 -13 15 0c14,0 25,-3 32,-7 8,-4 14,-10 17,-18 2,-5 3,-20 3,-45l0 -318c0,-25 -1,-40 -3,-46 -3,-6 -8,-12 -16,-17 -8,-4 -19,-7 -33,-7l-15 0 0 -13 216 0c58,0 104,8 139,24 43,19 76,48 98,87 22,39 33,83 33,132 0,35 -5,66 -16,95 -11,28 -25,52 -42,71 -18,18 -38,33 -60,44 -23,12 -51,20 -84,27 -14,2 -37,4 -68,4l-216 0zm184 -456l0 377c0,20 1,32 3,37 2,4 5,8 9,10 7,3 16,5 28,5 40,0 70,-13 91,-40 29,-37 43,-94 43,-171 0,-62 -10,-111 -29,-148 -16,-29 -36,-49 -60,-59 -17,-8 -46,-11 -85,-11zm615 -39c78,0 140,24 188,72 49,48 73,107 73,179 0,62 -18,116 -54,162 -48,62 -115,93 -202,93 -87,0 -154,-30 -202,-89 -37,-46 -56,-101 -56,-165 0,-72 24,-132 73,-180 49,-48 109,-72 180,-72zm5 27c-44,0 -78,23 -101,68 -19,37 -28,90 -28,160 0,82 14,143 43,183 20,28 49,41 85,41 25,0 45,-6 61,-18 21,-15 38,-39 49,-72 12,-34 18,-77 18,-131 0,-64 -6,-112 -18,-144 -12,-32 -27,-54 -46,-67 -18,-13 -39,-20 -63,-20zm664 235l0 150c0,25 1,40 4,47 2,6 8,11 16,16 8,4 18,7 32,7l16 0 0 13 -253 0 0 -13 16 0c14,0 25,-3 34,-8 6,-3 11,-9 14,-17 3,-6 4,-21 4,-45l0 -318c0,-25 -1,-40 -4,-46 -2,-6 -7,-12 -15,-17 -8,-4 -19,-7 -33,-7l-16 0 0 -13 253 0 0 13 -16 0c-14,0 -25,3 -34,8 -6,3 -11,9 -14,17 -3,6 -4,21 -4,45l0 137 170 0 0 -137c0,-25 -1,-40 -4,-46 -2,-6 -7,-12 -16,-17 -8,-4 -19,-7 -32,-7l-16 0 0 -13 253 0 0 13 -16 0c-14,0 -26,3 -34,8 -6,3 -11,9 -14,17 -3,6 -4,21 -4,45l0 318c0,25 1,40 4,47 2,6 8,11 16,16 8,4 18,7 32,7l16 0 0 13 -253 0 0 -13 16 0c14,0 26,-3 34,-8 6,-3 11,-9 15,-17 2,-6 3,-21 3,-45l0 -150 -170 0zm650 -262c77,0 140,24 188,72 48,48 72,107 72,179 0,62 -18,116 -54,162 -48,62 -115,93 -202,93 -86,0 -154,-30 -201,-89 -38,-46 -57,-101 -57,-165 0,-72 25,-132 73,-180 49,-48 110,-72 181,-72zm4 27c-44,0 -78,23 -101,68 -18,37 -28,90 -28,160 0,82 15,143 43,183 21,28 49,41 86,41 24,0 44,-6 61,-18 21,-15 37,-39 49,-72 11,-34 17,-77 17,-131 0,-64 -6,-112 -18,-144 -12,-32 -27,-54 -45,-67 -19,-13 -40,-20 -64,-20zm743 -16l0 131 -13 0c-8,-30 -17,-52 -26,-65 -9,-13 -22,-24 -38,-31 -9,-5 -25,-7 -47,-7l-36 0 0 373c0,25 1,40 4,47 3,6 8,11 16,16 8,4 19,7 33,7l16 0 0 13 -254 0 0 -13 16 0c14,0 26,-3 34,-8 7,-3 11,-9 15,-17 3,-6 4,-21 4,-45l0 -373 -35 0c-33,0 -56,7 -71,21 -21,19 -34,47 -39,82l-14 0 0 -131 435 0zm225 28l0 197 10 0c31,0 53,-10 66,-29 14,-19 23,-48 27,-85l14 0 0 253 -14 0c-3,-28 -9,-50 -18,-68 -10,-17 -20,-29 -32,-35 -12,-6 -30,-9 -53,-9l0 136c0,27 1,43 3,49 3,6 7,11 13,15 6,3 16,5 30,5l29 0c45,0 81,-10 109,-31 27,-21 47,-53 58,-96l14 0 -23 154 -417 0 0 -13 16 0c14,0 25,-3 34,-8 6,-3 11,-9 14,-17 3,-6 4,-21 4,-45l0 -318c0,-22 -1,-35 -2,-40 -2,-9 -7,-15 -13,-19 -9,-7 -22,-11 -37,-11l-16 0 0 -13 405 0 0 143 -14 0c-7,-35 -16,-60 -29,-75 -13,-15 -30,-26 -53,-33 -13,-5 -38,-7 -75,-7l-50 0zm750 286l-18 170 -430 0 0 -13 16 0c14,0 25,-3 34,-8 6,-3 11,-9 14,-17 3,-6 4,-21 4,-45l0 -318c0,-25 -1,-40 -4,-46 -2,-6 -7,-12 -16,-17 -8,-4 -18,-7 -32,-7l-16 0 0 -13 258 0 0 13 -21 0c-14,0 -25,3 -34,8 -6,3 -11,9 -14,17 -3,6 -4,21 -4,45l0 308c0,25 1,40 4,47 3,7 8,12 16,16 6,2 21,3 44,3l40 0c26,0 47,-5 64,-14 17,-9 32,-23 45,-42 12,-20 24,-49 35,-87l15 0zm533 -87c46,11 79,24 97,39 27,22 40,50 40,85 0,36 -15,66 -44,90 -36,29 -88,43 -157,43l-245 0 0 -13c22,0 37,-3 45,-7 8,-4 14,-9 17,-16 3,-6 5,-23 5,-49l0 -314c0,-26 -2,-43 -5,-49 -3,-7 -9,-12 -17,-16 -8,-5 -23,-7 -45,-7l0 -13 232 0c55,0 94,5 117,15 23,10 42,25 55,44 13,20 20,41 20,63 0,23 -9,44 -26,62 -17,18 -46,33 -89,43zm-130 -9c34,0 59,-4 75,-12 16,-7 28,-18 37,-31 9,-14 13,-32 13,-54 0,-21 -4,-38 -13,-52 -8,-14 -20,-24 -36,-31 -16,-7 -41,-11 -76,-10l0 190zm0 28l0 155 0 18c0,12 4,22 10,29 6,6 16,9 29,9 19,0 37,-4 53,-12 16,-9 28,-21 36,-37 9,-16 13,-34 13,-53 0,-23 -5,-43 -15,-61 -11,-18 -25,-31 -43,-38 -19,-7 -46,-11 -83,-10zm575 -257c77,0 140,24 188,72 48,48 72,107 72,179 0,62 -18,116 -54,162 -48,62 -115,93 -202,93 -86,0 -154,-30 -201,-89 -38,-46 -57,-101 -57,-165 0,-72 25,-132 73,-180 49,-48 110,-72 181,-72zm4 27c-44,0 -78,23 -101,68 -18,37 -28,90 -28,160 0,82 15,143 43,183 21,28 49,41 86,41 24,0 44,-6 61,-18 21,-15 37,-39 49,-72 11,-34 17,-77 17,-131 0,-64 -6,-112 -18,-144 -12,-32 -27,-54 -45,-67 -19,-13 -40,-20 -64,-20zm299 -16l249 0 0 13 -12 0c-19,0 -32,2 -39,6 -7,4 -12,10 -15,17 -2,6 -4,24 -4,51l0 237c0,43 3,72 10,86 6,14 17,26 32,35 15,9 34,14 57,14 26,0 48,-6 66,-18 19,-11 33,-28 42,-48 9,-21 14,-57 14,-108l0 -198c0,-21 -3,-37 -7,-46 -5,-9 -10,-16 -17,-19 -11,-6 -26,-9 -45,-9l0 -13 166 0 0 13 -9 0c-14,0 -25,3 -34,9 -9,5 -16,13 -20,24 -3,8 -4,22 -4,41l0 184c0,57 -4,98 -12,123 -7,25 -25,48 -54,69 -29,22 -69,32 -119,32 -42,0 -74,-5 -97,-16 -31,-16 -53,-35 -66,-59 -13,-24 -20,-56 -20,-96l0 -237c0,-27 -1,-45 -4,-51 -3,-7 -9,-13 -16,-17 -8,-4 -22,-6 -42,-6l0 -13zm971 0l0 131 -13 0c-7,-30 -16,-52 -25,-65 -9,-13 -22,-24 -38,-31 -9,-5 -25,-7 -48,-7l-36 0 0 373c0,25 2,40 4,47 3,6 9,11 17,16 8,4 18,7 32,7l16 0 0 13 -253 0 0 -13 16 0c14,0 25,-3 34,-8 6,-3 11,-9 14,-17 3,-6 5,-21 5,-45l0 -373 -36 0c-32,0 -56,7 -70,21 -21,19 -34,47 -40,82l-13 0 0 -131 434 0zm294 471l0 13 -253 0 0 -13 16 0c14,0 26,-3 34,-8 7,-3 11,-9 15,-17 2,-6 4,-21 4,-45l0 -318c0,-25 -2,-40 -5,-46 -2,-6 -7,-12 -15,-17 -8,-4 -19,-7 -33,-7l-16 0 0 -13 253 0 0 13 -16 0c-14,0 -25,3 -34,8 -6,3 -11,9 -14,17 -3,6 -4,21 -4,45l0 318c0,25 1,40 4,47 3,6 8,11 16,16 8,4 19,7 32,7l16 0zm366 17c11,32 28,56 51,72 23,16 52,24 87,24 9,0 20,-2 30,-3l0 21c-36,9 -68,14 -96,14 -44,0 -84,-11 -119,-33 -34,-21 -61,-53 -78,-95 -59,-12 -106,-41 -142,-86 -36,-45 -53,-98 -53,-160 0,-73 24,-133 72,-181 49,-48 111,-72 185,-72 75,0 136,24 184,72 48,48 72,109 72,181 0,62 -18,117 -56,163 -38,46 -84,74 -137,83zm-63 -472c-43,0 -76,23 -99,67 -20,38 -30,91 -30,159 0,83 15,144 44,184 21,28 49,42 85,42 36,0 64,-13 84,-41 30,-39 44,-98 44,-177 0,-77 -9,-133 -27,-168 -23,-44 -57,-66 -101,-66zm299 -16l250 0 0 13 -13 0c-18,0 -31,2 -38,6 -7,4 -12,10 -15,17 -3,6 -5,24 -5,51l0 237c0,43 4,72 10,86 7,14 17,26 32,35 15,9 34,14 57,14 26,0 48,-6 67,-18 18,-11 32,-28 41,-48 9,-21 14,-57 14,-108l0 -198c0,-21 -2,-37 -7,-46 -4,-9 -10,-16 -17,-19 -11,-6 -26,-9 -45,-9l0 -13 167 0 0 13 -10 0c-13,0 -25,3 -34,9 -9,5 -15,13 -19,24 -3,8 -5,22 -5,41l0 184c0,57 -4,98 -11,123 -8,25 -26,48 -55,69 -29,22 -68,32 -119,32 -42,0 -74,-5 -97,-16 -31,-16 -53,-35 -66,-59 -13,-24 -19,-56 -19,-96l0 -237c0,-27 -2,-45 -5,-51 -3,-7 -8,-13 -16,-17 -7,-4 -21,-6 -42,-6l0 -13zm710 28l0 197 9 0c31,0 53,-10 67,-29 14,-19 23,-48 26,-85l14 0 0 253 -14 0c-2,-28 -9,-50 -18,-68 -9,-17 -20,-29 -32,-35 -12,-6 -29,-9 -52,-9l0 136c0,27 1,43 3,49 2,6 6,11 13,15 6,3 16,5 30,5l29 0c45,0 81,-10 108,-31 28,-21 47,-53 59,-96l13 0 -22 154 -418 0 0 -13 16 0c14,0 26,-3 34,-8 7,-3 11,-9 15,-17 2,-6 4,-21 4,-45l0 -318c0,-22 -1,-35 -2,-40 -2,-9 -7,-15 -14,-19 -9,-7 -21,-11 -37,-11l-16 0 0 -13 405 0 0 143 -13 0c-7,-35 -17,-60 -29,-75 -13,-15 -31,-26 -53,-33 -14,-5 -39,-7 -75,-7l-50 0z"/>
   <g>
    <path class="fil1" d="M6416 1136l417 0 0 -234c0,-42 -3,-69 -8,-82 -5,-10 -14,-19 -28,-26 -19,-10 -39,-15 -60,-15l-32 0 0 -22 384 0 0 22 -32 0c-21,0 -41,5 -60,14 -15,7 -24,17 -29,30 -5,12 -7,39 -7,79l0 528c0,41 2,68 8,81 4,10 13,19 27,27 20,9 40,14 61,14l32 0 0 22 -384 0 0 -22 32 0c36,0 62,-10 80,-29 10,-13 16,-44 16,-93l0 -250 -417 0 0 250c0,41 3,68 8,81 5,10 14,19 28,27 19,9 39,14 60,14l33 0 0 22 -385 0 0 -22 32 0c37,0 64,-10 81,-29 10,-13 16,-44 16,-93l0 -528c0,-42 -3,-69 -9,-82 -4,-10 -13,-19 -27,-26 -19,-10 -40,-15 -61,-15l-32 0 0 -22 385 0 0 22 -33 0c-21,0 -41,5 -60,14 -14,7 -23,17 -28,30 -5,12 -8,39 -8,79l0 234z"/>
    <path class="fil1" d="M6848 1837l0 40 -447 0 0 -40 37 0c43,0 74,-17 94,-51 12,-23 18,-78 18,-163l0 -930c0,-73 -3,-121 -9,-145 -6,-17 -16,-32 -32,-45 -23,-17 -46,-26 -71,-26l-37 0 0 -39 447 0 0 39 -38 0c-42,0 -73,18 -93,53 -12,22 -19,76 -19,163l0 930c0,72 3,120 10,143 5,18 16,33 32,46 23,17 46,25 70,25l38 0z"/>
   </g>
   <path class="fil1" d="M7564 1005c0,68 0,137 0,205 1947,133 4512,753 5610,1131 -725,-392 -3539,-1297 -5610,-1336z"/>
   <path class="fil1" d="M5611 1005c0,68 0,137 0,205 -1947,133 -4513,753 -5611,1131 725,-392 3539,-1297 5611,-1336z"/>
  </g>
 </g>
</svg>
